<svg width="75" height="75" viewBox="0 0 75 75" fill="none" xmlns="http://www.w3.org/2000/svg">
<circle cx="37.5" cy="37.5" r="37.5" fill="url(#paint0_linear_81_1534)"/>
<path fill-rule="evenodd" clip-rule="evenodd" d="M44.1069 21.1543H30.893C25.5228 21.1543 21.1538 25.5233 21.1538 30.8935V44.1074C21.1538 49.4776 25.5228 53.8466 30.893 53.8466H44.1069C49.4771 53.8466 53.8461 49.4776 53.8461 44.1074V30.8935C53.8461 25.5233 49.4771 21.1543 44.1069 21.1543ZM50.5574 44.1074C50.5574 47.6698 47.6694 50.5578 44.107 50.5578H30.8931C27.3307 50.5578 24.4427 47.6698 24.4427 44.1074V30.8936C24.4427 27.3311 27.3307 24.4432 30.8931 24.4432H44.107C47.6694 24.4432 50.5574 27.3311 50.5574 30.8936V44.1074ZM29.0447 37.5006C29.0447 32.8383 32.8378 29.0452 37.5001 29.0452C42.1624 29.0452 45.9555 32.8383 45.9555 37.5006C45.9555 42.1629 42.1624 45.956 37.5001 45.956C32.8378 45.956 29.0447 42.1628 29.0447 37.5006ZM37.5 42.6672C34.6466 42.6672 32.3335 40.3541 32.3335 37.5006C32.3335 34.6472 34.6467 32.3341 37.5 32.3341C40.3535 32.3341 42.6666 34.6472 42.6666 37.5006C42.6666 40.354 40.3534 42.6672 37.5 42.6672ZM45.9718 31.1344C47.0907 31.1344 47.9979 30.2273 47.9979 29.1083C47.9979 27.9894 47.0907 27.0823 45.9718 27.0823C44.8528 27.0823 43.9457 27.9894 43.9457 29.1083C43.9457 30.2273 44.8528 31.1344 45.9718 31.1344Z" fill="white"/>
<defs>
<linearGradient id="paint0_linear_81_1534" x1="0.250578" y1="-0.125288" x2="1.17094e-06" y2="74.8747" gradientUnits="userSpaceOnUse">
<stop stop-color="#7024C4"/>
<stop offset="0.415461" stop-color="#C21975"/>
<stop offset="0.702206" stop-color="#C74C4D"/>
<stop offset="1" stop-color="#E09B3D"/>
</linearGradient>
</defs>
</svg>