<svg width="75" height="75" viewBox="0 0 75 75" fill="none" xmlns="http://www.w3.org/2000/svg">
<circle cx="37.5" cy="37.5" r="37.5" fill="#007AB7"/>
<path fill-rule="evenodd" clip-rule="evenodd" d="M30.0583 32.0157H24.4744V49.9991H30.0583V32.0157ZM30.5149 26.3194C30.5149 24.5315 29.0619 23.0762 27.2767 23.0762C25.4811 23.0762 24.0385 24.5315 24.0385 26.3194C24.0385 28.1074 25.4811 29.5627 27.2767 29.5627C29.0619 29.5627 30.5149 28.1074 30.5149 26.3194ZM38.9116 32.0157H33.5768V49.999H39.1503V41.1009C39.1503 38.762 39.5862 36.4855 42.4923 36.4855C45.3569 36.4855 45.3881 39.1674 45.3881 41.2568V49.999H50.9616V40.1446C50.9616 35.3005 49.9133 31.5791 44.2671 31.5791C41.5478 31.5791 39.7315 33.0656 38.9842 34.4793H38.9116V32.0157Z" fill="white"/>
</svg>