<svg width="75" height="75" viewBox="0 0 75 75" fill="none" xmlns="http://www.w3.org/2000/svg">
<circle cx="37.5" cy="37.5" r="37.5" fill="#2AA3EF"/>
<path fill-rule="evenodd" clip-rule="evenodd" d="M52.8846 27.9591C51.7532 28.461 50.535 28.8003 49.2588 28.9539C50.5621 28.1717 51.5632 26.9359 52.0338 25.4625C50.8138 26.1858 49.4634 26.7108 48.0243 26.993C46.873 25.7661 45.233 25 43.4174 25C39.931 25 37.1035 27.8252 37.1035 31.3112C37.1035 31.8076 37.1615 32.288 37.2683 32.7506C32.0224 32.488 27.3721 29.9736 24.2586 26.1554C23.7137 27.0876 23.4042 28.1717 23.4042 29.3289C23.4042 31.5183 24.5193 33.4506 26.2118 34.581C25.1763 34.5489 24.2025 34.2649 23.3535 33.7917C23.3535 33.8185 23.3535 33.8453 23.3535 33.8721C23.3535 36.9294 25.5275 39.4796 28.4166 40.06C27.8862 40.2047 27.3304 40.2814 26.753 40.2814C26.3475 40.2814 25.9511 40.2422 25.5655 40.1672C26.3693 42.6745 28.7007 44.4996 31.4631 44.5514C29.3017 46.2426 26.5792 47.2516 23.6214 47.2516C23.1128 47.2516 22.6095 47.223 22.1154 47.1641C24.9084 48.9553 28.2265 50 31.7925 50C43.4029 50 49.753 40.3832 49.753 32.0434C49.753 31.7683 49.7458 31.4987 49.7349 31.2272C50.9676 30.3379 52.0392 29.2253 52.8846 27.9609V27.9591Z" fill="white"/>
</svg>